<?xml version="1.0" encoding="UTF-8"?><svg id="Ebene_2" xmlns="http://www.w3.org/2000/svg" viewBox="0 0 1173.28 247.57"><defs><style>.cls-1{fill:#004eff;}.cls-2{fill:#4a4a49;}</style></defs><g id="Ebene_1-2"><g><polygon class="cls-1" points="195.56 0 165.53 0 150.5 26.03 203.16 117.24 233.22 117.24 248.25 91.22 195.56 0"/><polygon class="cls-1" points="270.82 0 240.76 0 225.76 26.03 240.77 52.11 270.82 52.11 285.88 26.03 270.82 0"/><polygon class="cls-1" points="195.61 130.35 165.53 130.35 112.9 221.57 127.9 247.57 157.96 247.57 210.62 156.38 195.61 130.35"/><polygon class="cls-1" points="158.04 65.19 128.01 65.19 75.32 156.38 90.35 182.4 120.41 182.4 173.04 91.21 158.04 65.19"/><polygon class="cls-1" points="82.78 65.19 52.74 65.19 37.69 91.22 52.74 117.24 82.78 117.24 97.81 91.22 82.78 65.19"/><polygon class="cls-1" points="120.35 0 15.03 0 0 26.03 15.03 52.11 120.35 52.11 135.35 26.03 120.35 0"/></g><g><path class="cls-2" d="M444.26,80.67l-41.48,98.2h-16.02l-41.48-98.2h20.15l29.39,74.02,29.1-74.02h20.35Z"/><path class="cls-2" d="M529.06,80.67h18.77v98.2h-18.77v-14.25c-2.75,4.65-7.21,8.52-13.37,11.6-6.16,3.08-12.65,4.62-19.46,4.62-8.91,0-17.04-2.24-24.38-6.73-7.34-4.49-13.09-10.65-17.25-18.48-4.16-7.83-6.24-16.46-6.24-25.9s2.08-18.07,6.24-25.9c4.16-7.83,9.91-13.99,17.25-18.48,7.34-4.49,15.46-6.73,24.38-6.73,6.88,0,13.42,1.56,19.61,4.67,6.19,3.11,10.6,7,13.22,11.65v-14.25Zm-29.19,82.67c6.03,0,11.75-1.52,17.15-4.57,5.41-3.05,9.42-6.96,12.04-11.75v-34.4c-2.62-4.85-6.63-8.81-12.04-11.89-5.41-3.08-11.12-4.62-17.15-4.62-9.5,0-17.45,3.2-23.84,9.58-6.39,6.39-9.58,14.4-9.58,24.03s3.19,17.56,9.58,23.98c6.39,6.42,14.33,9.63,23.84,9.63Z"/><path class="cls-2" d="M606.29,180.84c-7.67,0-15.22-1.28-22.66-3.83-7.44-2.55-13.52-5.96-18.23-10.22l7.67-13.86c3.8,3.67,8.81,6.67,15.04,8.99,6.22,2.33,12.22,3.49,17.99,3.49s10.24-1.26,13.81-3.78c3.57-2.52,5.36-5.69,5.36-9.49,0-2.95-1.05-5.41-3.15-7.37-2.1-1.97-4.82-3.49-8.16-4.57s-7.03-2.06-11.06-2.95c-4.03-.88-8.06-1.97-12.09-3.24-4.03-1.28-7.72-2.85-11.06-4.72-3.34-1.87-6.06-4.55-8.16-8.06-2.1-3.51-3.14-7.72-3.14-12.63,0-8.91,3.44-16.14,10.32-21.67,6.88-5.54,15.86-8.31,26.93-8.31,6.88,0,13.52,1.08,19.9,3.24,6.39,2.16,11.65,5.24,15.78,9.24l-8.06,14.06c-3.41-3.34-7.96-5.98-13.66-7.91-5.7-1.93-10.95-2.9-15.73-2.9-5.11,0-9.21,1.16-12.29,3.49-3.08,2.33-4.62,5.39-4.62,9.19,0,2.69,1.05,4.93,3.15,6.73,2.1,1.8,4.82,3.24,8.16,4.32s7.03,2.1,11.06,3.05c4.03,.95,8.08,2.13,12.14,3.54,4.06,1.41,7.77,3.13,11.11,5.16,3.34,2.03,6.06,4.88,8.16,8.55,2.1,3.67,3.15,8.03,3.15,13.07,0,8.52-3.51,15.55-10.52,21.09-7.01,5.54-16.05,8.31-27.13,8.31Z"/><path class="cls-2" d="M737.67,80.67h18.77v98.2h-18.77v-14.25c-2.75,4.65-7.21,8.52-13.37,11.6-6.16,3.08-12.65,4.62-19.46,4.62-8.91,0-17.04-2.24-24.38-6.73-7.34-4.49-13.09-10.65-17.25-18.48-4.16-7.83-6.24-16.46-6.24-25.9s2.08-18.07,6.24-25.9c4.16-7.83,9.91-13.99,17.25-18.48,7.34-4.49,15.46-6.73,24.38-6.73,6.88,0,13.42,1.56,19.61,4.67,6.19,3.11,10.6,7,13.22,11.65v-14.25Zm-29.19,82.67c6.03,0,11.75-1.52,17.15-4.57,5.41-3.05,9.42-6.96,12.04-11.75v-34.4c-2.62-4.85-6.63-8.81-12.04-11.89-5.41-3.08-11.12-4.62-17.15-4.62-9.5,0-17.45,3.2-23.84,9.58-6.39,6.39-9.58,14.4-9.58,24.03s3.19,17.56,9.58,23.98c6.39,6.42,14.33,9.63,23.84,9.63Z"/><path class="cls-2" d="M831.41,78.61c12.25,0,22.03,4.01,29.34,12.04,7.31,8.03,10.96,18.73,10.96,32.09v56.13h-18.58v-53.57c0-8.65-2.36-15.55-7.08-20.69-4.72-5.14-11.01-7.72-18.87-7.72-5.7,0-11.07,1.43-16.12,4.28-5.05,2.85-8.91,6.67-11.6,11.45v66.25h-18.77V80.67h18.77v14.25c3.01-4.91,7.44-8.86,13.27-11.84,5.83-2.98,12.06-4.47,18.68-4.47Z"/><path class="cls-2" d="M945.3,161.77l.98,16.32c-3.15,1.31-6.68,1.97-10.62,1.97-10.62,0-19.19-3.23-25.7-9.68-6.52-6.45-9.78-15.42-9.78-26.88v-45.12h-19.07v-17.69h19.07v-26.64h18.58v26.64h26.54v17.69h-26.54v44.23c0,6.23,1.8,11.14,5.41,14.74,3.6,3.61,8.22,5.41,13.86,5.41,2.69,0,5.11-.33,7.27-.98Z"/><path class="cls-2" d="M1014.47,78.61c12.19,0,21.95,4.01,29.29,12.04,7.34,8.03,11.01,18.73,11.01,32.09v56.13h-18.58v-53.57c0-8.58-2.37-15.46-7.13-20.64-4.75-5.18-11.03-7.77-18.82-7.77-5.7,0-11.01,1.39-15.92,4.18-4.91,2.79-8.85,6.57-11.8,11.35v66.45h-18.77V37.91h18.77v56.82c3.28-4.85,7.78-8.75,13.52-11.7,5.73-2.95,11.88-4.42,18.43-4.42Z"/><path class="cls-2" d="M1154.51,80.67h18.77v98.2h-18.77v-14.25c-2.75,4.65-7.21,8.52-13.37,11.6-6.16,3.08-12.65,4.62-19.46,4.62-8.91,0-17.04-2.24-24.38-6.73-7.34-4.49-13.09-10.65-17.25-18.48-4.16-7.83-6.24-16.46-6.24-25.9s2.08-18.07,6.24-25.9c4.16-7.83,9.91-13.99,17.25-18.48,7.34-4.49,15.46-6.73,24.38-6.73,6.88,0,13.42,1.56,19.61,4.67,6.19,3.11,10.6,7,13.22,11.65v-14.25Zm-29.19,82.67c6.03,0,11.75-1.52,17.15-4.57,5.41-3.05,9.42-6.96,12.04-11.75v-34.4c-2.62-4.85-6.64-8.81-12.04-11.89-5.41-3.08-11.12-4.62-17.15-4.62-9.5,0-17.45,3.2-23.84,9.58-6.39,6.39-9.58,14.4-9.58,24.03s3.19,17.56,9.58,23.98c6.39,6.42,14.33,9.63,23.84,9.63Z"/></g></g></svg>